<svg xmlns="http://www.w3.org/2000/svg" fill="none" width="100" viewBox="16 69 125 30">
<path d="M90.6846 91.9082L88.9246 87.4602L80.1566 87.4602L78.4926 91.9082L72.5406 91.9082L82.0446 69.2522L87.3566 69.2522L96.7646 91.9082L90.6846 91.9082ZM84.6046 75.3002L81.7246 83.0762L87.4206 83.0762L84.6046 75.3002ZM99.9171 91.9082L99.9171 69.2522L105.421 69.2522L105.421 91.9082L99.9171 91.9082ZM131.929 91.9082L132.057 75.8762L131.961 75.8762L126.073 91.9082L122.233 91.9082L116.505 75.8762L116.409 75.8762L116.537 91.9082L111.385 91.9082L111.385 69.2522L119.161 69.2522L124.313 83.7802L124.441 83.7802L129.369 69.2522L137.273 69.2522L137.273 91.9082L131.929 91.9082Z" fill="#2D2727"/>
<path d="M54.0683 92.8694C52.2769 92.9163 50.6281 92.7034 49.1219 92.2307C47.6156 91.7579 46.3165 91.045 45.2245 90.092C44.1533 89.117 43.3004 87.9229 42.6659 86.5097C42.0521 85.0746 41.7209 83.4294 41.6724 81.574C41.6271 79.8466 41.895 78.2604 42.4761 76.8153C43.0571 75.3703 43.878 74.1217 44.9389 73.0696C46.021 72.0169 47.3012 71.1938 48.7795 70.6002C50.2786 69.9848 51.9025 69.6541 53.6512 69.6083C55.4 69.5625 57.0283 69.808 58.5362 70.3447C60.0435 70.8601 61.3544 71.6154 62.4689 72.6106C63.5827 73.5844 64.4569 74.7779 65.0915 76.1911C65.7468 77.5825 66.0968 79.1312 66.1415 80.8372C66.1644 81.7116 66.0899 82.5352 65.9181 83.3079C65.7457 84.0594 65.5076 84.7485 65.2039 85.3753C64.9002 86.0022 64.5522 86.5661 64.1599 87.0673C63.767 87.547 63.3721 87.9522 62.9753 88.2827L62.9778 88.3786L67.7416 88.1579L67.8556 92.5084L54.0683 92.8694ZM60.3556 81.1488C60.3299 80.1678 60.1463 79.2656 59.8046 78.4423C59.4843 77.6184 59.0284 76.9154 58.4369 76.3334C57.8668 75.7508 57.183 75.3098 56.3856 75.0106C55.5876 74.6901 54.7194 74.5421 53.7811 74.5666C52.8641 74.5907 52.0155 74.7836 51.2354 75.1455C50.476 75.4855 49.8162 75.9616 49.2561 76.5738C48.6959 77.186 48.2668 77.9121 47.9686 78.7522C47.6705 79.5923 47.5343 80.5029 47.56 81.4839C47.5868 82.5075 47.7607 83.442 48.0816 84.2872C48.4232 85.1105 48.8794 85.8242 49.4501 86.4281C50.0415 87.0101 50.7256 87.4617 51.5023 87.7828C52.2997 88.0821 53.1676 88.2194 54.1059 88.1948C55.023 88.1708 55.8718 87.9885 56.6525 87.648C57.4326 87.2861 58.1028 86.799 58.6629 86.1868C59.2225 85.5533 59.6514 84.8165 59.9495 83.9764C60.2471 83.115 60.3824 82.1725 60.3556 81.1488Z" fill="#D83434"/>
<path d="M33.7105 78.8322C33.7105 77.6362 33.3272 76.6089 32.5605 75.7502C31.8245 74.8916 30.7052 74.4622 29.2025 74.4622C28.4665 74.4622 27.7919 74.5849 27.1785 74.8302C26.5652 75.0449 26.0285 75.3516 25.5685 75.7502C25.1085 76.1489 24.7405 76.6242 24.4645 77.1762C24.1885 77.6976 24.0352 78.2496 24.0045 78.8322H33.7105ZM40.6565 81.7302C40.6565 82.0369 40.6565 82.3436 40.6565 82.6502C40.6565 82.9569 40.6412 83.2482 40.6105 83.5242H24.0045C24.0659 84.1682 24.2499 84.7509 24.5565 85.2722C24.8939 85.7936 25.3079 86.2536 25.7985 86.6522C26.3199 87.0202 26.8872 87.3116 27.5005 87.5262C28.1445 87.7409 28.8039 87.8482 29.4785 87.8482C30.6745 87.8482 31.6865 87.6336 32.5145 87.2042C33.3425 86.7442 34.0172 86.1616 34.5385 85.4562L39.7825 88.7682C38.7092 90.3322 37.2832 91.5436 35.5045 92.4022C33.7565 93.2302 31.7172 93.6442 29.3865 93.6442C27.6692 93.6442 26.0439 93.3836 24.5105 92.8622C22.9772 92.3102 21.6279 91.5282 20.4625 90.5162C19.3279 89.4736 18.4232 88.2009 17.7485 86.6982C17.1045 85.1956 16.7825 83.4782 16.7825 81.5462C16.7825 79.6756 17.1045 77.9889 17.7485 76.4862C18.3925 74.9529 19.2665 73.6649 20.3705 72.6222C21.4745 71.5489 22.7779 70.7209 24.2805 70.1382C25.7832 69.5555 27.4085 69.2642 29.1565 69.2642C30.8432 69.2642 32.3919 69.5555 33.8025 70.1382C35.2132 70.6902 36.4245 71.5029 37.4365 72.5762C38.4485 73.6496 39.2305 74.9529 39.7825 76.4862C40.3652 78.0196 40.6565 79.7676 40.6565 81.7302Z" fill="#D83434"/>
</svg>