<svg width="150" viewBox="0 55 270 70" fill="none" xmlns="http://www.w3.org/2000/svg">
<path d="M64.1172 88.6502C64.1172 87.1942 63.6505 85.9436 62.7172 84.8982C61.8212 83.8529 60.4585 83.3302 58.6292 83.3302C57.7332 83.3302 56.9119 83.4796 56.1652 83.7782C55.4185 84.0396 54.7652 84.4129 54.2052 84.8982C53.6452 85.3836 53.1972 85.9622 52.8612 86.6342C52.5252 87.2689 52.3385 87.9409 52.3012 88.6502H64.1172ZM72.5732 92.1782C72.5732 92.5516 72.5732 92.9249 72.5732 93.2982C72.5732 93.6716 72.5546 94.0262 72.5172 94.3622H52.3012C52.3759 95.1462 52.5999 95.8556 52.9732 96.4903C53.3839 97.1249 53.8879 97.6849 54.4852 98.1703C55.1199 98.6183 55.8105 98.9729 56.5572 99.2343C57.3412 99.4956 58.1439 99.6263 58.9652 99.6263C60.4212 99.6263 61.6532 99.3649 62.6612 98.8423C63.6692 98.2823 64.4905 97.5729 65.1252 96.7143L71.5092 100.746C70.2026 102.65 68.4665 104.125 66.3012 105.17C64.1732 106.178 61.6905 106.682 58.8532 106.682C56.7625 106.682 54.7839 106.365 52.9172 105.73C51.0505 105.058 49.4079 104.106 47.9892 102.874C46.6079 101.605 45.5065 100.056 44.6852 98.2263C43.9012 96.3969 43.5092 94.3062 43.5092 91.9542C43.5092 89.6769 43.9012 87.6236 44.6852 85.7942C45.4692 83.9276 46.5332 82.3596 47.8772 81.0902C49.2212 79.7836 50.8079 78.7756 52.6372 78.0662C54.4665 77.3569 56.4452 77.0022 58.5732 77.0022C60.6265 77.0022 62.5119 77.3569 64.2292 78.0662C65.9465 78.7382 67.4212 79.7276 68.6532 81.0342C69.8852 82.3409 70.8372 83.9276 71.5092 85.7942C72.2186 87.6609 72.5732 89.7889 72.5732 92.1782ZM97.3086 119.226V102.706H97.1966C96.3006 103.901 95.0873 104.853 93.5566 105.562C92.0633 106.234 90.4579 106.57 88.7406 106.57C86.6126 106.57 84.7273 106.16 83.0846 105.338C81.4419 104.517 80.0606 103.434 78.9406 102.09C77.8206 100.709 76.9619 99.1223 76.3646 97.3303C75.7673 95.5382 75.4686 93.6716 75.4686 91.7302C75.4686 89.7889 75.7673 87.9409 76.3646 86.1862C76.9993 84.3942 77.8766 82.8262 78.9966 81.4822C80.1539 80.1382 81.5353 79.0742 83.1406 78.2902C84.7833 77.5062 86.6126 77.1142 88.6286 77.1142C90.7193 77.1142 92.5113 77.5436 94.0046 78.4022C95.5353 79.2236 96.7299 80.1942 97.5886 81.3142H97.7566V77.8982H106.437V119.226H97.3086ZM97.6446 91.7862C97.6446 90.8902 97.4766 90.0129 97.1406 89.1542C96.8419 88.2956 96.3939 87.5302 95.7966 86.8582C95.2366 86.1862 94.5459 85.6449 93.7246 85.2342C92.9033 84.8236 91.9699 84.6182 90.9246 84.6182C89.8419 84.6182 88.8899 84.8236 88.0686 85.2342C87.2473 85.6449 86.5566 86.1862 85.9966 86.8582C85.4366 87.4929 85.0073 88.2396 84.7086 89.0982C84.4473 89.9569 84.3166 90.8342 84.3166 91.7302C84.3166 92.6262 84.4473 93.5222 84.7086 94.4182C85.0073 95.2769 85.4366 96.0423 85.9966 96.7143C86.5566 97.3863 87.2473 97.9276 88.0686 98.3383C88.8899 98.7489 89.8419 98.9543 90.9246 98.9543C91.9699 98.9543 92.9033 98.7489 93.7246 98.3383C94.5459 97.9276 95.2366 97.3863 95.7966 96.7143C96.3939 96.0423 96.8419 95.2769 97.1406 94.4182C97.4766 93.5596 97.6446 92.6822 97.6446 91.7862ZM129.297 93.6342H128.121C127.113 93.6342 126.087 93.6902 125.041 93.8022C124.033 93.8769 123.119 94.0449 122.297 94.3062C121.513 94.5676 120.86 94.9596 120.337 95.4822C119.815 95.9676 119.553 96.6209 119.553 97.4423C119.553 97.9649 119.665 98.4129 119.889 98.7863C120.151 99.1596 120.468 99.4583 120.841 99.6823C121.215 99.9063 121.644 100.074 122.129 100.186C122.615 100.261 123.081 100.298 123.529 100.298C125.396 100.298 126.815 99.7943 127.785 98.7863C128.793 97.7409 129.297 96.3409 129.297 94.5862V93.6342ZM112.441 81.7062C114.084 80.1382 115.988 78.9622 118.153 78.1782C120.356 77.3942 122.596 77.0022 124.873 77.0022C127.225 77.0022 129.204 77.3009 130.809 77.8982C132.452 78.4582 133.777 79.3542 134.785 80.5862C135.793 81.7809 136.521 83.3116 136.969 85.1782C137.455 87.0076 137.697 89.1916 137.697 91.7302V105.786H129.297V102.818H129.129C128.42 103.976 127.337 104.872 125.881 105.506C124.463 106.141 122.913 106.458 121.233 106.458C120.113 106.458 118.956 106.309 117.761 106.01C116.567 105.712 115.465 105.226 114.457 104.554C113.487 103.882 112.684 102.986 112.049 101.866C111.415 100.746 111.097 99.3649 111.097 97.7223C111.097 95.7062 111.639 94.0822 112.721 92.8502C113.841 91.6182 115.26 90.6662 116.977 89.9942C118.732 89.3222 120.673 88.8742 122.801 88.6502C124.929 88.4262 127.001 88.3142 129.017 88.3142V87.8662C129.017 86.4849 128.532 85.4769 127.561 84.8422C126.591 84.1702 125.396 83.8342 123.977 83.8342C122.671 83.8342 121.401 84.1142 120.169 84.6742C118.975 85.2342 117.948 85.9062 117.089 86.6902L112.441 81.7062ZM153.4 68.9942C153.4 69.7036 153.251 70.3756 152.952 71.0102C152.691 71.6076 152.317 72.1302 151.832 72.5782C151.384 73.0262 150.824 73.3809 150.152 73.6422C149.517 73.9036 148.845 74.0342 148.136 74.0342C146.643 74.0342 145.392 73.5489 144.384 72.5782C143.376 71.5702 142.872 70.3756 142.872 68.9942C142.872 68.3222 143.003 67.6876 143.264 67.0902C143.525 66.4556 143.899 65.9142 144.384 65.4662C144.869 65.0182 145.429 64.6636 146.064 64.4022C146.699 64.1036 147.389 63.9542 148.136 63.9542C148.845 63.9542 149.517 64.0849 150.152 64.3462C150.824 64.6076 151.384 64.9622 151.832 65.4102C152.317 65.8582 152.691 66.3996 152.952 67.0342C153.251 67.6316 153.4 68.2849 153.4 68.9942ZM143.544 105.786V77.8982H152.728V105.786H143.544ZM194.778 105.786V90.5542C194.778 89.7702 194.722 89.0236 194.61 88.3142C194.498 87.5676 194.293 86.9329 193.994 86.4102C193.696 85.8876 193.285 85.4769 192.762 85.1782C192.277 84.8422 191.624 84.6742 190.802 84.6742C190.018 84.6742 189.328 84.8422 188.73 85.1782C188.17 85.5142 187.685 85.9622 187.274 86.5222C186.901 87.0822 186.621 87.7356 186.434 88.4822C186.248 89.1916 186.154 89.9382 186.154 90.7222V105.786H176.97V89.8822C176.97 88.2769 176.653 87.0076 176.018 86.0742C175.384 85.1409 174.376 84.6742 172.994 84.6742C171.538 84.6742 170.4 85.2529 169.578 86.4102C168.794 87.5676 168.402 88.9862 168.402 90.6662V105.786H159.162V77.8982H168.066V81.7622H168.178C168.514 81.1649 168.925 80.5862 169.41 80.0262C169.933 79.4662 170.549 78.9809 171.258 78.5702C171.968 78.1222 172.752 77.7676 173.61 77.5062C174.506 77.2449 175.477 77.1142 176.522 77.1142C178.538 77.1142 180.237 77.5249 181.618 78.3462C183.037 79.1676 184.138 80.3436 184.922 81.8742C185.856 80.4182 187.05 79.2609 188.506 78.4022C189.962 77.5436 191.736 77.1142 193.826 77.1142C195.73 77.1142 197.317 77.4689 198.586 78.1782C199.893 78.8502 200.938 79.7462 201.722 80.8662C202.506 81.9489 203.066 83.1809 203.402 84.5622C203.776 85.9062 203.962 87.2316 203.962 88.5382V105.786H194.778Z" fill="#fff"/>
<path d="M18.3167 69.3666C19.4223 67.1554 22.5777 67.1554 23.6833 69.3666L36.948 95.8959C38.3238 98.6475 35.1603 101.44 32.6006 99.7337L22.6641 93.1094C21.6564 92.4376 20.3436 92.4376 19.3359 93.1094L9.39943 99.7337C6.83972 101.44 3.67623 98.6475 5.05204 95.8959L18.3167 69.3666Z" fill="#3058A7"/>
</svg>
